<svg id="Layer_1" data-name="Layer 1" xmlns="http://www.w3.org/2000/svg" viewBox="0 0 281.13 221.75"><path d="M152,57.78c0-12.19-.16-23.13.12-34,.06-2.6.91-5.89,2.65-7.53,1.52-1.42,5.62-2.11,7.11-1a11.2,11.2,0,0,1,4.31,7.56c.51,9.6.19,19.24.22,28.87,0,1.78.14,3.55.27,6.39,13-2,25.38-4.1,37.8-5.86,16.89-2.4,33.52-2.29,48.69,7.06,13.09,8.07,21.31,20.22,27.37,34,9,20.36,13.23,42,16.7,63.79,2.29,14.46,3.56,29,1.2,43.61-5.71,35.33-37.65,40.35-59,32.48-17.86-6.57-29.8-20.1-39.61-35.63a228.25,228.25,0,0,1-12.14-22.81c-1.36-2.83-3.06-3.33-5.78-3.32-15.12.09-30.23.17-45.34,0-3.47-.05-4.85,1.33-6.21,4.21-9.07,19.24-20,37.23-37.51,50-13.58,9.91-28.61,13.72-45.15,8.75-16.91-5.07-26.76-18.26-28.6-37.33-1.94-20.12,1.82-39.66,5.4-59.26,3-16.53,7.13-32.73,14.57-47.89S56.61,61.59,73,55c12.46-5,25.42-4.32,38.32-2.84C124.64,53.66,137.87,55.8,152,57.78ZM32.67,184.46c.16,3.48.21,7,.48,10.44,1.84,23.67,19.59,30.73,37.7,26.37,8.29-2,15.1-6.75,21.09-12.65C103.72,197,111.9,183,118.41,168c3.12-7.18,8.1-10.44,15.8-10.39q24.91.16,49.82,0c7.74-.06,12.51,3.36,15.92,10.31a278.53,278.53,0,0,0,15.55,27.71,64.15,64.15,0,0,0,24,22.64c18.86,10,39.8,2.28,44.35-16.58a33.76,33.76,0,0,0,1.3-10.33c-1.08-13.85-1.81-27.81-4.11-41.48-3.15-18.79-7.36-37.45-15.86-54.76-7.36-15-17.8-26.9-35.33-28.94-8.93-1.05-18.29-.32-27.25,1-18.91,2.85-37.77,6-56.94,4.06-13.69-1.38-27.29-3.65-41-5.31-15.35-1.86-29.91.25-40.55,12.56a85.2,85.2,0,0,0-14,22.11C38.91,127.34,34.79,155.72,32.67,184.46Z" transform="translate(-18.55 -14.63)"/><path d="M107.42,112.49c4.56,0,8.35.08,12.13,0s5.56,1.3,5.54,5.21c-.06,14.15,1,12.57-12,12.6H107.4c0,4.4,0,8.47,0,12.54,0,3.45-1.51,5.23-5.08,5.24-14.41,0-12.59.81-12.65-12v-5.81c-4.5,0-8.45-.12-12.39,0-3.75.14-5.34-1.35-5.45-5.23-.36-12.57-.46-12.57,12.09-12.6h5.76c0-4.37.11-8.44,0-12.5-.14-3.65,1.58-4.94,5.06-5.14,12.65-.71,12.64-.78,12.7,12Z" transform="translate(-18.55 -14.63)"/><path d="M227.46,140.56a9.26,9.26,0,0,1-9.32,9.48,9.54,9.54,0,0,1-9.56-9.35,9.43,9.43,0,0,1,9.44-9.43A9.17,9.17,0,0,1,227.46,140.56Z" transform="translate(-18.55 -14.63)"/><path d="M237.41,112.17a9.3,9.3,0,1,1-.42,18.6,9.11,9.11,0,0,1-9-9.3A9,9,0,0,1,237.41,112.17Z" transform="translate(-18.55 -14.63)"/><path d="M227.68,102.14a8.88,8.88,0,0,1-9.29,9.4,9,9,0,0,1-9.39-9.35,9.34,9.34,0,0,1,18.68,0Z" transform="translate(-18.55 -14.63)"/><path d="M199.47,112.17a9.24,9.24,0,0,1,9.05,9.8,9.13,9.13,0,0,1-9.52,8.8,9.31,9.31,0,1,1,.47-18.6Z" transform="translate(-18.55 -14.63)"/></svg>